<svg version="1.1" id="Layer_1" xmlns="http://www.w3.org/2000/svg" xmlns:xlink="http://www.w3.org/1999/xlink" x="0px" y="0px"
	 width="100%" viewBox="0 0 496 496" enable-background="new 0 0 496 496" xml:space="preserve">
<path fill="#000000" opacity="1.000000" stroke="none" 
	d="
M497.000000,228.531342 
	C494.400909,223.463135 494.853821,217.353668 493.913757,211.529892 
	C487.274445,170.398575 471.147552,133.415405 445.623383,100.591988 
	C415.373383,61.691273 376.839813,34.120453 330.260834,18.045166 
	C303.301331,8.740922 275.489288,4.481569 246.901932,5.089615 
	C184.119873,6.424974 129.709045,28.467733 83.592812,70.923492 
	C47.435478,104.210823 23.772732,145.060242 11.664093,192.564682 
	C4.954006,218.889587 3.012748,245.827087 5.545921,272.771545 
	C10.110488,321.323212 27.418690,365.061554 57.858231,403.402252 
	C89.422882,443.160095 129.463104,470.639923 177.763504,486.103302 
	C193.004486,490.982727 208.611710,494.205475 224.563782,495.692688 
	C225.529327,495.782715 226.465912,496.183319 227.707993,496.719696 
	C152.356201,497.000000 76.712387,497.000000 1.034292,497.000000 
	C1.034292,331.739502 1.034292,166.478973 1.034292,1.109222 
	C166.210495,1.109222 331.421082,1.109222 497.000000,1.109222 
	C497.000000,76.687164 497.000000,152.374924 497.000000,228.531342 
z"/>
<path fill="#000000" opacity="1.000000" stroke="none" 
	d="
M274.468658,497.000000 
	C279.338776,494.364807 285.280060,494.883881 290.920380,493.958008 
	C323.729553,488.572754 354.181763,477.045837 382.124817,459.136871 
	C433.648590,426.114777 468.529205,380.277802 486.692444,321.816132 
	C491.338196,306.863007 494.394287,291.559082 495.718750,275.931030 
	C495.786377,275.132721 496.186798,274.362579 496.716125,273.289673 
	C497.000000,347.593536 497.000000,422.187073 497.000000,497.000000 
	C422.979248,497.000000 348.958282,497.000000 274.468658,497.000000 
z"/>
<path fill="#000000" opacity="1.000000" stroke="none" 
	d="
M363.261475,159.773895 
	C369.320007,167.262741 375.128998,174.492950 379.339447,183.217499 
	C330.806610,135.487839 274.262756,123.978188 209.433838,143.811462 
	C211.381714,146.887238 213.354538,146.468552 215.024033,146.755615 
	C230.892944,149.484421 246.388748,153.181854 259.283600,163.686447 
	C271.899323,173.963684 276.070038,187.095154 272.750061,202.887772 
	C270.893555,211.718903 267.154449,219.820755 262.872345,228.665390 
	C266.531586,226.585037 269.379333,224.942291 272.248810,223.338333 
	C299.937439,207.861160 335.940796,209.865311 358.878906,228.569763 
	C376.156769,242.658691 383.899170,261.724731 384.193115,283.461578 
	C384.688660,320.106873 370.543182,350.446533 342.527557,374.208801 
	C335.797546,379.917023 335.792999,379.911652 337.619385,387.871246 
	C337.118591,387.820740 336.383240,387.927551 336.268250,387.708618 
	C333.084442,381.645935 329.387451,383.547028 324.766296,386.282379 
	C305.387146,397.753387 284.302734,403.645569 261.858459,405.565582 
	C243.024139,407.176788 224.691116,405.239838 206.541229,400.438538 
	C204.850998,399.991425 202.970291,399.895508 201.658569,398.360748 
	C202.809464,396.576996 204.386856,397.516693 205.760422,397.570282 
	C229.559265,398.498535 253.064697,397.325623 275.399567,387.826294 
	C289.441254,381.854218 301.318634,372.964996 311.271301,361.397644 
	C313.205658,359.149475 313.268280,357.437836 311.308014,355.415039 
	C309.480682,353.529419 308.176300,351.129822 306.206360,349.915070 
	C302.063843,353.757629 298.066528,357.439484 294.097504,361.151642 
	C279.506989,374.798126 261.653381,381.227661 242.334564,383.905518 
	C201.393417,389.580475 165.249649,379.181763 135.591782,349.860260 
	C116.776062,331.257935 106.128845,308.074799 101.834831,282.093384 
	C95.024643,240.887482 103.560143,203.002686 127.518364,168.750015 
	C131.417969,163.174835 136.149689,158.181854 140.493027,152.916641 
	C141.204712,152.053894 142.315536,151.384216 141.869614,149.542236 
	C139.003708,148.616425 135.844772,149.214249 132.766373,149.050888 
	C129.694794,148.887909 126.508865,149.483994 122.614784,147.491013 
	C128.853989,144.911819 134.605118,145.530243 140.036209,145.176971 
	C146.122131,144.781082 150.965988,143.086456 155.781738,139.181396 
	C176.368164,122.487984 199.793640,111.491592 226.084610,107.783218 
	C269.564087,101.650368 308.510712,112.913177 342.916443,140.094193 
	C350.263397,145.898392 356.765656,152.579437 363.261475,159.773895 
M289.183167,330.120911 
	C278.376007,318.194427 266.901947,307.107117 251.636200,300.938599 
	C241.911758,297.009155 232.064758,293.375793 222.404282,289.297974 
	C216.393997,286.760925 210.874863,283.280823 206.582016,278.198364 
	C201.948792,272.712952 200.442795,266.643951 202.657715,259.591949 
	C205.105225,251.799362 210.810043,246.362534 215.743378,240.322342 
	C225.117981,228.844421 234.882645,217.618271 240.139389,203.406540 
	C245.836151,188.005157 241.538239,175.176224 227.622849,166.401871 
	C218.750931,160.807648 208.694794,158.398392 198.764542,155.551041 
	C193.857056,154.143906 190.174774,155.384781 186.412949,158.413696 
	C176.337433,166.526276 167.504547,175.820343 160.345291,186.537506 
	C138.955750,218.557007 131.081665,253.055298 143.532959,290.415771 
	C151.541748,314.446320 167.416290,332.089874 190.636780,342.665009 
	C202.066879,347.870544 214.099823,351.145813 226.651245,352.223846 
	C249.097733,354.151794 269.586639,348.778442 287.859283,335.457764 
	C289.388092,334.343231 291.445404,333.103943 289.183167,330.120911 
M247.904831,275.590088 
	C251.266983,277.040985 254.539307,278.767853 258.006287,279.896790 
	C276.569855,285.941650 289.638062,298.435303 299.536682,314.769806 
	C300.699219,316.688171 301.655334,318.884003 304.122437,320.090057 
	C312.573303,311.055634 317.806580,300.195526 323.076874,289.299927 
	C324.867737,290.564362 324.405304,291.812469 324.433960,292.919708 
	C324.781769,306.355408 321.296234,318.959869 315.948212,331.115265 
	C312.635620,338.644409 313.372681,342.717560 319.805084,349.160004 
	C320.283173,348.768616 320.918091,348.455627 321.252136,347.945587 
	C337.526093,323.096252 343.046143,296.592682 332.307556,268.156372 
	C324.932983,248.628281 308.400085,237.872772 287.823364,239.408493 
	C268.060150,240.883499 252.632492,251.655914 238.737427,264.913666 
	C236.992920,266.578186 237.635178,268.108795 239.020325,269.683533 
	C241.289047,272.262756 244.338959,273.642578 247.904831,275.590088 
z"/>
<path fill="#000000" opacity="1.000000" stroke="none" 
	d="
M280.173279,153.076080 
	C290.176117,146.192123 301.634308,148.054901 307.591797,157.247208 
	C313.253143,165.982620 310.646240,177.546799 301.773987,183.054855 
	C294.168549,187.776443 283.608551,186.009155 277.760651,179.036118 
	C271.562805,171.645798 272.424225,161.260925 280.173279,153.076080 
z"/>
<path fill="#000000" opacity="1.000000" stroke="none" 
	d="
M210.560562,228.430847 
	C210.823135,232.561356 209.087646,234.901199 205.275391,234.955307 
	C202.258728,234.998123 200.332458,233.091797 200.036911,230.082672 
	C199.736496,227.023911 201.378555,225.016205 204.348984,224.399414 
	C207.390701,223.767807 209.392715,225.229858 210.560562,228.430847 
z"/>
<path fill="#000000" opacity="1.000000" stroke="none" 
	d="
M186.162506,247.947250 
	C186.651001,244.246231 188.562134,242.611572 191.915817,242.758209 
	C194.570526,242.874298 196.284592,244.355972 196.849564,246.845840 
	C197.438629,249.441986 196.029709,251.333588 193.875687,252.554306 
	C190.753784,254.323502 187.975235,252.747757 186.162506,247.947250 
z"/>
<path fill="#000000" opacity="1.000000" stroke="none" 
	d="
M186.130249,265.763977 
	C189.063995,264.180481 191.558701,264.230316 193.689682,266.425323 
	C195.053375,267.829987 195.504395,269.571381 194.708954,271.450073 
	C193.329987,274.706909 190.769302,276.200745 187.564545,274.697418 
	C183.481216,272.781921 183.605408,269.476624 186.130249,265.763977 
z"/>
<path fill="#000000" opacity="1.000000" stroke="none" 
	d="
M205.118896,289.492920 
	C203.517624,292.540955 201.310272,293.247223 198.732224,291.724609 
	C196.782394,290.572998 196.342499,288.535431 197.095978,286.453857 
	C197.889450,284.261719 199.702911,283.426453 201.904663,283.858917 
	C204.738831,284.415558 205.548050,286.445862 205.118896,289.492920 
z"/>
<path fill="#000000" opacity="1.000000" stroke="none" 
	d="
M222.936066,215.734100 
	C221.811035,218.287354 220.253784,219.672195 217.730835,218.941162 
	C215.620728,218.329758 214.329453,216.820587 214.510635,214.511215 
	C214.668137,212.503601 215.696152,210.995697 217.854843,210.815552 
	C221.059692,210.548096 222.882538,212.035126 222.936066,215.734100 
z"/>
<path fill="#000000" opacity="1.000000" stroke="none" 
	d="
M222.597229,181.424377 
	C224.113388,179.038315 225.922226,178.173477 228.262558,179.299149 
	C229.715393,179.997925 230.464752,181.259369 230.362808,182.934097 
	C230.262054,184.589478 229.416275,185.954453 227.917297,186.361435 
	C224.075577,187.404480 222.294846,185.656876 222.597229,181.424377 
z"/>
<path fill="#000000" opacity="1.000000" stroke="none" 
	d="
M214.875641,174.338837 
	C212.165649,174.135681 210.852951,172.810562 211.138855,170.485519 
	C211.330963,168.923462 212.553986,167.955536 214.222748,167.813889 
	C215.879578,167.673248 217.173035,168.371979 217.738541,169.895813 
	C218.607407,172.237030 217.447525,173.611404 214.875641,174.338837 
z"/>
<path fill="#000000" opacity="1.000000" stroke="none" 
	d="
M232.845978,199.877594 
	C231.472260,202.240234 229.780075,202.779022 227.767609,201.516052 
	C226.590179,200.777130 226.032120,199.525620 226.396164,198.128510 
	C226.810089,196.539886 227.970978,195.589035 229.608215,195.665009 
	C231.954681,195.773926 233.108749,197.131760 232.845978,199.877594 
z"/>
<path fill="#000000" opacity="1.000000" stroke="none" 
	d="
M219.977783,299.485779 
	C220.441727,301.983582 219.611252,303.456024 217.462494,303.846130 
	C216.045273,304.103424 214.832840,303.404205 214.242630,302.067139 
	C213.581818,300.570190 213.768951,299.070129 215.173279,298.083527 
	C217.020233,296.785980 218.585861,297.400543 219.977783,299.485779 
z"/>
</svg>